<svg xmlns="http://www.w3.org/2000/svg" id="Capa_1" viewBox="0 0 340.1 100.8">
    <style>
        .st0{fill:#1c60ff}
    </style>
    <path d="M82.8 66.9L47.5 99.6h.1l79.7-51.4v-.3H72.6zM47.1 99.9V.6L5.6 71.8zM142 48.9h-8.2v50.7h19.3v-7H142zM167.5 48.5c-7.5 0-11.6 4.1-11.6 10.1v31.3c0 6.1 4.1 10.1 11.6 10.1s11.6-4 11.6-10.1V58.6c0-6.1-4.1-10.1-11.6-10.1zm3.4 41.4c.4 3.9-7.2 3.9-6.7 0V58.6c-.5-3.9 7.2-3.9 6.7 0v31.3zM195.6 48.5c-7.5 0-11.6 4.1-11.6 10.1v31.3c0 6.1 4.1 10.1 11.6 10.1s11.6-4 11.6-10.1V58.6c-.1-6.1-4.2-10.1-11.6-10.1zm3.4 41.4c.4 3.9-7.2 3.9-6.7 0V58.6c-.5-3.9 7.2-3.9 6.7 0v31.3zM224.4 48.9h-11.9v50.7h8.2V80.2h3.7c7.3 0 11.1-3.8 11.1-9.9V58.8c.1-6.1-3.7-9.9-11.1-9.9zm3 21.4c0 2-1 3-3 3h-3.7V55.9h3.7c2 0 3 1 3 3v11.4zM262.7 70.3V58.8c0-6.2-3.8-9.9-11.1-9.9h-11.9v50.7h8.2V80.2h2.5l5.2 19.4h8.2l-5.6-20.9c3-1.6 4.5-4.5 4.5-8.4zm-8.2 0c0 2-1 3-3 3h-3.7V55.9h3.7c2 0 3 1 3 3v11.4zM268 48.9h8.2v50.7H268zM298.4 63.8c0 3.9.1 8.2.2 12.8L291 48.9h-8.9v50.7h7.5V84.7c0-4.1-.1-8.5-.2-13.3l7.7 28.2h8.7V48.9h-7.5v14.9zM334.4 67v-8.4c0-6.2-4.1-10.1-11.6-10.1s-11.6 4.1-11.6 10.1v31.3c0 6.1 4.1 10.1 11.6 10.1s11.6-4 11.6-10.1V74.3H323v6.9h3.5v8.6c0 2-1.5 3-3.6 3-2.2 0-3.3-1-3.3-3V58.6c-.6-4 7.2-3.8 6.9 0V67h7.9z" class="st0"/>
</svg>
